<svg width="398" height="398" version="1.1" xmlns="http://www.w3.org/2000/svg" desc="Created with imagetracer.js version 1.2.6" ><path fill="rgb(0,0,0)" stroke="rgb(0,0,0)" stroke-width="1" opacity="0" d="M 0 0 L 398 0 L 398 398 L 0 398 L 0 0 Z M 188 93 L 169 97 L 154 106 L 149 111 L 148 110 Q 136 110 130 116 Q 115 128 107 147 L 102 165 L 101 179 L 98 193 L 89 212 L 85 225 L 85 231 L 88 241 L 95 252 Q 96 260 93 265 Q 91 280 98 287 Q 102 292 109 294 Q 112 295 111 293 L 110 290 L 112 291 L 115 301 L 109 306 L 117 310 Q 132 312 139 306 L 144 314 L 151 319 L 156 320 L 167 328 L 168 328 L 168 333 L 155 334 L 150 336 L 141 344 L 119 348 Q 114 349 115 355 L 110 359 Q 127 369 149 375 L 168 379 L 185 380 L 186 381 L 215 381 L 216 380 L 226 380 L 227 379 L 239 378 L 267 370 L 290 359 Q 291 356 289 357 L 286 355 L 285 349 L 261 344 L 250 335 L 234 333 L 233 328 Q 239 327 243 322 L 249 321 L 255 317 L 261 311 L 262 312 Q 266 313 268 311 L 270 312 Q 279 312 285 308 L 294 298 L 296 290 L 299 286 L 301 287 L 306 287 L 315 283 Q 318 281 318 276 L 316 277 L 309 275 L 304 269 L 305 267 L 310 269 L 307 261 L 308 253 L 313 238 L 313 225 L 304 197 L 299 162 Q 294 146 284 135 L 269 120 Q 254 109 236 102 L 210 94 L 188 93 Z " /><path fill="rgb(226,176,135)" stroke="rgb(226,176,135)" stroke-width="1" opacity="0.996078431372549" d="M 191.5 101 L 212.5 102 L 230.5 108 L 236 111.5 L 234.5 111 L 211.5 104 L 198.5 103 L 181.5 106 L 170.5 111 L 171.5 109 Q 179.5 103 191.5 101 Z " /><path fill="rgb(226,176,135)" stroke="rgb(226,176,135)" stroke-width="1" opacity="0.996078431372549" d="M 196.5 109 Q 215.9 111.6 227 122.5 L 225.5 122 L 204.5 114 L 199.5 113 L 183.5 113 L 174.5 116 L 175.5 114 L 183.5 111 L 198 110.5 L 196.5 109 Z " /><path fill="rgb(226,176,135)" stroke="rgb(226,176,135)" stroke-width="1" opacity="0.996078431372549" d="M 148.5 119 L 151 119.5 L 144 122.5 L 150 123.5 L 140.5 125 L 134.5 128 L 139.5 122 L 148.5 119 Z " /><path fill="rgb(226,176,135)" stroke="rgb(226,176,135)" stroke-width="1" opacity="0.996078431372549" d="M 177.5 121 Q 187.2 119.3 192 122.5 L 187.5 123 L 182.5 122 L 172.5 124 L 172.5 123 L 177.5 121 Z " /><path fill="rgb(226,176,135)" stroke="rgb(226,176,135)" stroke-width="1" opacity="0.996078431372549" d="M 176.5 128 L 189.5 128 Q 197.3 130.3 202 135.5 L 200.5 135 Q 192 129.2 179 129 Q 177.9 131.7 180.5 131 L 180.5 132 Q 173.5 132 170.5 136 L 172.5 133 L 174 132.5 L 172 132 Q 170.9 129.3 173.5 130 L 176.5 128 Z " /><path fill="rgb(226,176,135)" stroke="rgb(226,176,135)" stroke-width="1" opacity="0.996078431372549" d="M 140.5 133 L 147 133.5 L 138.5 135 L 132.5 140 L 136.5 135 L 140.5 133 Z " /><path fill="rgb(226,176,135)" stroke="rgb(226,176,135)" stroke-width="1" opacity="0.996078431372549" d="M 184.5 141 Q 197.8 142.7 203 152.5 L 201.5 153 L 192.5 145 L 184.5 142 L 184.5 141 Z " /><path fill="rgb(226,176,135)" stroke="rgb(226,176,135)" stroke-width="1" opacity="0.996078431372549" d="M 139.5 142 L 146 142.5 Q 136.1 144.1 132 151.5 L 129.5 156 L 129 154.5 Q 131.1 146.6 137.5 143 L 139.5 142 Z " /><path fill="rgb(226,176,135)" stroke="rgb(226,176,135)" stroke-width="1" opacity="0.996078431372549" d="M 174.5 155 L 186 155.5 L 174.5 156 L 174.5 155 Z " /><path fill="rgb(226,176,135)" stroke="rgb(226,176,135)" stroke-width="1" opacity="0.996078431372549" d="M 193.5 157 L 204.5 169 L 193.5 157 Z " /><path fill="rgb(226,176,135)" stroke="rgb(226,176,135)" stroke-width="1" opacity="0.996078431372549" d="M 142.5 168 L 141.5 170 L 142.5 168 Z " /><path fill="rgb(226,176,135)" stroke="rgb(226,176,135)" stroke-width="1" opacity="0.996078431372549" d="M 210.5 175 L 214.5 180 L 210.5 175 Z " /><path fill="rgb(226,176,135)" stroke="rgb(226,176,135)" stroke-width="1" opacity="0.996078431372549" d="M 226.5 191 L 229.5 195 L 226.5 191 Z " /><path fill="rgb(226,176,135)" stroke="rgb(226,176,135)" stroke-width="1" opacity="0.996078431372549" d="M 232.5 196 L 233.5 198 L 232.5 196 Z " /><path fill="rgb(226,176,135)" stroke="rgb(226,176,135)" stroke-width="1" opacity="0.996078431372549" d="M 134.5 199 L 135 203.5 L 134 203.5 L 134.5 199 Z " /><path fill="rgb(226,176,135)" stroke="rgb(226,176,135)" stroke-width="1" opacity="0.996078431372549" d="M 160.5 201 L 166 201.5 L 160.5 202 L 160.5 201 Z " /><path fill="rgb(226,176,135)" stroke="rgb(226,176,135)" stroke-width="1" opacity="0.996078431372549" d="M 168.5 201 L 173 201.5 L 168.5 202 L 168.5 201 Z " /><path fill="rgb(226,176,135)" stroke="rgb(226,176,135)" stroke-width="1" opacity="0.996078431372549" d="M 235.5 201 L 240 201.5 L 235.5 202 L 235.5 201 Z " /><path fill="rgb(226,176,135)" stroke="rgb(226,176,135)" stroke-width="1" opacity="0.996078431372549" d="M 188.5 205 L 189.5 207 L 188.5 205 Z " /><path fill="rgb(226,176,135)" stroke="rgb(226,176,135)" stroke-width="1" opacity="0.996078431372549" d="M 220.5 205 L 219.5 207 L 220.5 205 Z " /><path fill="rgb(226,176,135)" stroke="rgb(226,176,135)" stroke-width="1" opacity="0.996078431372549" d="M 149.5 210 L 157 210.5 L 149.5 211 L 149.5 210 Z " /><path fill="rgb(226,176,135)" stroke="rgb(226,176,135)" stroke-width="1" opacity="0.996078431372549" d="M 185 210 L 187 210.5 L 185 211.5 L 185 210 Z " /><path fill="rgb(226,176,135)" stroke="rgb(226,176,135)" stroke-width="1" opacity="0.996078431372549" d="M 222.5 210 Q 224.8 209.3 224 211.5 L 222.5 210 Z " /><path fill="rgb(226,176,135)" stroke="rgb(226,176,135)" stroke-width="1" opacity="0.996078431372549" d="M 253.5 210 L 257 210.5 L 253.5 211 L 253.5 210 Z " /><path fill="rgb(226,176,135)" stroke="rgb(226,176,135)" stroke-width="1" opacity="0.996078431372549" d="M 140.5 212 Q 143.5 213.5 140.5 215 L 139 214.5 L 141 213.5 L 140.5 212 Z " /><path fill="rgb(226,176,135)" stroke="rgb(226,176,135)" stroke-width="1" opacity="0.996078431372549" d="M 137.5 213 L 136.5 215 L 137.5 213 Z " /><path fill="rgb(226,176,135)" stroke="rgb(226,176,135)" stroke-width="1" opacity="0.996078431372549" d="M 160.5 213 L 168.5 214 L 176 217.5 L 174.5 218 Q 168.4 213.6 156.5 215 Q 146 217.5 140.5 225 L 141 223.5 L 146.5 217 L 153.5 214 Q 159 215.5 160.5 213 Z " /><path fill="rgb(226,176,135)" stroke="rgb(226,176,135)" stroke-width="1" opacity="0.996078431372549" d="M 247.5 213 L 260.5 216 L 267 221.5 L 268 224.5 L 261.5 219 L 251.5 215 L 242.5 215 L 233.5 218 L 233.5 217 L 240.5 214 Q 246 215.5 247.5 213 Z " /><path fill="rgb(226,176,135)" stroke="rgb(226,176,135)" stroke-width="1" opacity="0.996078431372549" d="M 214.5 217 L 213.5 219 L 214.5 217 Z " /><path fill="rgb(226,176,135)" stroke="rgb(226,176,135)" stroke-width="1" opacity="0.996078431372549" d="M 267.5 217 L 268.5 219 L 267.5 217 Z " /><path fill="rgb(226,176,135)" stroke="rgb(226,176,135)" stroke-width="1" opacity="0.996078431372549" d="M 177.5 218 L 182 221.5 L 180.5 221 L 177.5 218 Z " /><path fill="rgb(226,176,135)" stroke="rgb(226,176,135)" stroke-width="1" opacity="0.996078431372549" d="M 185.5 218 L 188.5 222 L 185.5 218 Z " /><path fill="rgb(226,176,135)" stroke="rgb(226,176,135)" stroke-width="1" opacity="0.996078431372549" d="M 231.5 218 L 229.5 221 L 227.5 222 L 229.5 219 L 231.5 218 Z " /><path fill="rgb(226,176,135)" stroke="rgb(226,176,135)" stroke-width="1" opacity="0.996078431372549" d="M 137.5 225 L 139.5 228 L 137.5 225 Z " /><path fill="rgb(226,176,135)" stroke="rgb(226,176,135)" stroke-width="1" opacity="0.996078431372549" d="M 187.5 226 L 188.5 228 L 187.5 226 Z " /><path fill="rgb(226,176,135)" stroke="rgb(226,176,135)" stroke-width="1" opacity="0.996078431372549" d="M 270.5 226 L 269.5 228 L 270.5 226 Z " /><path fill="rgb(226,176,135)" stroke="rgb(226,176,135)" stroke-width="1" opacity="0.996078431372549" d="M 220.5 227 L 219.5 229 L 220.5 227 Z " /><path fill="rgb(226,176,135)" stroke="rgb(226,176,135)" stroke-width="1" opacity="0.996078431372549" d="M 225.5 228 L 224.5 230 L 225.5 228 Z " /><path fill="rgb(226,176,135)" stroke="rgb(226,176,135)" stroke-width="1" opacity="0.996078431372549" d="M 184.5 229 L 185.5 231 L 184.5 229 Z " /><path fill="rgb(226,176,135)" stroke="rgb(226,176,135)" stroke-width="1" opacity="0.996078431372549" d="M 230.5 229 L 231 232.5 L 230 232.5 L 230.5 229 Z " /><path fill="rgb(226,176,135)" stroke="rgb(226,176,135)" stroke-width="1" opacity="0.996078431372549" d="M 273.5 230 L 274 231.5 L 274 233.5 Q 274.8 235.8 272.5 235 L 272.5 237 L 271.5 236 L 269 237.5 L 272.5 233 L 271 232.5 L 273.5 230 Z " /><path fill="rgb(226,176,135)" stroke="rgb(226,176,135)" stroke-width="1" opacity="0.996078431372549" d="M 136.5 231 L 137.5 233 L 136 233.5 L 140.5 239 L 138 237.5 L 139 239.5 L 137 238.5 L 134.5 234 L 133 233.5 L 136 233 L 136.5 231 Z " /><path fill="rgb(226,176,135)" stroke="rgb(226,176,135)" stroke-width="1" opacity="0.996078431372549" d="M 198.5 231 L 197.5 233 L 198.5 231 Z " /><path fill="rgb(226,176,135)" stroke="rgb(226,176,135)" stroke-width="1" opacity="0.996078431372549" d="M 191.5 232 L 193 234.5 L 192 234.5 L 191.5 232 Z " /><path fill="rgb(226,176,135)" stroke="rgb(226,176,135)" stroke-width="1" opacity="0.996078431372549" d="M 215.5 233 L 217 238.5 L 216 238.5 L 215.5 233 Z " /><path fill="rgb(226,176,135)" stroke="rgb(226,176,135)" stroke-width="1" opacity="0.996078431372549" d="M 211.5 235 L 212 242.5 L 211 242.5 L 211.5 235 Z " /><path fill="rgb(226,176,135)" stroke="rgb(226,176,135)" stroke-width="1" opacity="0.996078431372549" d="M 190 237 L 192 237.5 Q 189.5 246 183.5 251 Q 176.7 257.7 161.5 256 Q 146.4 252.6 139 241.5 L 147.5 249 L 161.5 255 L 172.5 255 Q 182.8 252.3 188 244.5 L 190 237 Z " /><path fill="rgb(226,176,135)" stroke="rgb(226,176,135)" stroke-width="1" opacity="0.996078431372549" d="M 130.5 238 L 131 242.5 L 130 242.5 L 130.5 238 Z " /><path fill="rgb(226,176,135)" stroke="rgb(226,176,135)" stroke-width="1" opacity="0.996078431372549" d="M 271.5 238 L 271 239.5 L 267 246 L 258.5 252 L 251.5 255 L 235.5 256 Q 225.4 253.6 220 246.5 L 217 240.5 L 218 240.5 L 224.5 250 L 235.5 255 L 246.5 255 Q 262.3 251.8 270 240.5 L 271.5 238 Z " /><path fill="rgb(226,176,135)" stroke="rgb(226,176,135)" stroke-width="1" opacity="0.996078431372549" d="M 278.5 238 L 279 242.5 L 278 242.5 L 278.5 238 Z " /><path fill="rgb(226,176,135)" stroke="rgb(226,176,135)" stroke-width="1" opacity="0.996078431372549" d="M 214.5 240 L 215 242.5 L 214 242.5 L 214.5 240 Z " /><path fill="rgb(226,176,135)" stroke="rgb(226,176,135)" stroke-width="1" opacity="0.996078431372549" d="M 165.5 241 L 170 241.5 L 165.5 242 L 165.5 241 Z " /><path fill="rgb(226,176,135)" stroke="rgb(226,176,135)" stroke-width="1" opacity="0.996078431372549" d="M 239.5 241 L 244 241.5 L 239.5 242 L 239.5 241 Z " /><path fill="rgb(226,176,135)" stroke="rgb(226,176,135)" stroke-width="1" opacity="0.996078431372549" d="M 167.5 246 L 170 246.5 L 167.5 247 L 167.5 246 Z " /><path fill="rgb(226,176,135)" stroke="rgb(226,176,135)" stroke-width="1" opacity="0.996078431372549" d="M 125.5 247 L 128 260.5 L 126.5 260 L 125 260.5 L 126.5 263 L 122 258.5 L 122.5 257 Q 120.3 257.8 121 255.5 L 125.5 247 Z " /><path fill="rgb(226,176,135)" stroke="rgb(226,176,135)" stroke-width="1" opacity="0.996078431372549" d="M 283.5 249 L 290 257.5 L 288.5 257 L 286 257.5 L 287 258.5 L 282.5 263 L 283.5 260 L 281.5 261 L 281 258.5 L 283.5 249 Z " /><path fill="rgb(226,176,135)" stroke="rgb(226,176,135)" stroke-width="1" opacity="0.996078431372549" d="M 215.5 250 L 216 255 L 214 254.5 L 215.5 250 Z " /><path fill="rgb(226,176,135)" stroke="rgb(226,176,135)" stroke-width="1" opacity="0.996078431372549" d="M 144.5 252 L 153.5 256 L 162.5 258 L 165 260.5 Q 169.1 263.4 168 271.5 L 162.5 278 L 155.5 281 L 151.5 281 L 143 277 L 138 266.5 L 138 257.5 L 141.5 253 L 144.5 252 Z " /><path fill="rgb(226,176,135)" stroke="rgb(226,176,135)" stroke-width="1" opacity="0.996078431372549" d="M 262.5 252 Q 268.1 251.9 270 255.5 Q 272.3 258.7 271 265.5 Q 269.3 274.8 262.5 279 Q 259.6 281.6 253.5 281 Q 245.2 278.9 241 272.5 L 241 265.5 L 246.5 258 Q 256.5 257 262.5 252 Z " /><path fill="rgb(226,176,135)" stroke="rgb(226,176,135)" stroke-width="1" opacity="0.996078431372549" d="M 119.5 259 L 121.5 262 L 119.5 259 Z " /><path fill="rgb(226,176,135)" stroke="rgb(226,176,135)" stroke-width="1" opacity="0.996078431372549" d="M 289.5 259 L 287.5 262 L 289.5 259 Z " /><path fill="rgb(226,176,135)" stroke="rgb(226,176,135)" stroke-width="1" opacity="0.996078431372549" d="M 217 264 L 219 264.5 L 217.5 267 L 217 264 Z " /><path fill="rgb(226,176,135)" stroke="rgb(226,176,135)" stroke-width="1" opacity="0.996078431372549" d="M 126.5 267 L 128 267.5 L 125.5 269 L 126.5 267 Z " /><path fill="rgb(226,176,135)" stroke="rgb(226,176,135)" stroke-width="1" opacity="0.996078431372549" d="M 281.5 267 L 284 268.5 L 282.5 269 L 281.5 267 Z " /><path fill="rgb(226,176,135)" stroke="rgb(226,176,135)" stroke-width="1" opacity="0.996078431372549" d="M 190.5 268 L 191 270.5 L 190 270.5 L 190.5 268 Z " /><path fill="rgb(226,176,135)" stroke="rgb(226,176,135)" stroke-width="1" opacity="0.996078431372549" d="M 217.5 271 L 216.5 273 L 217.5 271 Z " /><path fill="rgb(226,176,135)" stroke="rgb(226,176,135)" stroke-width="1" opacity="0.996078431372549" d="M 199.5 272 L 208 273.5 Q 207.3 276.8 202.5 276 L 199.5 272 Z " /><path fill="rgb(226,176,135)" stroke="rgb(226,176,135)" stroke-width="1" opacity="0.996078431372549" d="M 189.5 273 L 190.5 275 L 189.5 273 Z " /><path fill="rgb(226,176,135)" stroke="rgb(226,176,135)" stroke-width="1" opacity="0.996078431372549" d="M 194.5 274 Q 200.3 273.3 201 277.5 L 199.5 277 L 193 275.5 L 194.5 274 Z " /><path fill="rgb(226,176,135)" stroke="rgb(226,176,135)" stroke-width="1" opacity="0.996078431372549" d="M 211.5 274 Q 216.3 272.7 215 276 L 209.5 277 L 211.5 274 Z " /><path fill="rgb(226,176,135)" stroke="rgb(226,176,135)" stroke-width="1" opacity="0.996078431372549" d="M 285 275 L 287 275.5 L 285 276.5 L 285 275 Z " /><path fill="rgb(226,176,135)" stroke="rgb(226,176,135)" stroke-width="1" opacity="0.996078431372549" d="M 121.5 281 L 122 284.5 L 121 284.5 L 121.5 281 Z " /><path fill="rgb(226,176,135)" stroke="rgb(226,176,135)" stroke-width="1" opacity="0.996078431372549" d="M 135.5 281 L 136 283.5 L 135 283.5 L 135.5 281 Z " /><path fill="rgb(226,176,135)" stroke="rgb(226,176,135)" stroke-width="1" opacity="0.996078431372549" d="M 135.5 288 L 136 290.5 L 134 291.5 L 135.5 288 Z " /><path fill="rgb(226,176,135)" stroke="rgb(226,176,135)" stroke-width="1" opacity="0.996078431372549" d="M 233.5 289 L 231.5 292 L 233.5 289 Z " /><path fill="rgb(226,176,135)" stroke="rgb(226,176,135)" stroke-width="1" opacity="0.996078431372549" d="M 273.5 289 L 275 291.5 L 273 290.5 L 273.5 289 Z " /><path fill="rgb(226,176,135)" stroke="rgb(226,176,135)" stroke-width="1" opacity="0.996078431372549" d="M 122.5 291 L 123.5 293 Q 120.7 293.7 122.5 291 Z " /><path fill="rgb(226,176,135)" stroke="rgb(226,176,135)" stroke-width="1" opacity="0.996078431372549" d="M 285 291 Q 288 290 287 293 Q 284 294 285 291 Z " /><path fill="rgb(226,176,135)" stroke="rgb(226,176,135)" stroke-width="1" opacity="0.996078431372549" d="M 134.5 294 L 133.5 296 L 134.5 294 Z " /><path fill="rgb(226,176,135)" stroke="rgb(226,176,135)" stroke-width="1" opacity="0.996078431372549" d="M 115.5 295 L 116.5 297 L 115.5 295 Z " /><path fill="rgb(226,176,135)" stroke="rgb(226,176,135)" stroke-width="1" opacity="0.996078431372549" d="M 123.5 295 L 124.5 297 L 123.5 295 Z " /><path fill="rgb(226,176,135)" stroke="rgb(226,176,135)" stroke-width="1" opacity="0.996078431372549" d="M 231.5 295 L 228.5 299 L 231.5 295 Z " /><path fill="rgb(226,176,135)" stroke="rgb(226,176,135)" stroke-width="1" opacity="0.996078431372549" d="M 275.5 295 L 276 297.5 L 275 297.5 L 275.5 295 Z " /><path fill="rgb(226,176,135)" stroke="rgb(226,176,135)" stroke-width="1" opacity="0.996078431372549" d="M 176.5 296 L 178.5 299 L 176.5 296 Z " /><path fill="rgb(226,176,135)" stroke="rgb(226,176,135)" stroke-width="1" opacity="0.996078431372549" d="M 133.5 297 L 132.5 299 L 133.5 297 Z " /><path fill="rgb(226,176,135)" stroke="rgb(226,176,135)" stroke-width="1" opacity="0.996078431372549" d="M 117.5 298 L 119.5 301 L 121 301.5 L 119.5 302 Q 115.9 300.9 117.5 298 Z " /><path fill="rgb(226,176,135)" stroke="rgb(226,176,135)" stroke-width="1" opacity="0.996078431372549" d="M 125.5 298 L 127.5 301 L 130 301.5 L 127.5 302 Q 123.9 300.9 125.5 298 Z " /><path fill="rgb(226,176,135)" stroke="rgb(226,176,135)" stroke-width="1" opacity="0.996078431372549" d="M 283.5 298 L 284 299.5 Q 283.5 302.5 279.5 302 L 279.5 301 L 283 299.5 L 283.5 298 Z " /><path fill="rgb(226,176,135)" stroke="rgb(226,176,135)" stroke-width="1" opacity="0.996078431372549" d="M 149.5 300 L 150.5 302 L 149.5 300 Z " /><path fill="rgb(226,176,135)" stroke="rgb(226,176,135)" stroke-width="1" opacity="0.996078431372549" d="M 225.5 300 L 224.5 302 L 225.5 300 Z " /><path fill="rgb(226,176,135)" stroke="rgb(226,176,135)" stroke-width="1" opacity="0.996078431372549" d="M 259.5 300 L 258.5 302 L 259.5 300 Z " /><path fill="rgb(226,176,135)" stroke="rgb(226,176,135)" stroke-width="1" opacity="0.996078431372549" d="M 182.5 301 L 183.5 303 L 182.5 301 Z " /><path fill="rgb(226,176,135)" stroke="rgb(226,176,135)" stroke-width="1" opacity="0.996078431372549" d="M 191.5 302 L 205 304 L 204.5 306 L 196.5 306 Q 191.9 304.8 191.5 302 Z " /><path fill="rgb(226,176,135)" stroke="rgb(226,176,135)" stroke-width="1" opacity="0.996078431372549" d="M 222.5 302 L 221.5 304 L 222.5 302 Z " /><path fill="rgb(226,176,135)" stroke="rgb(226,176,135)" stroke-width="1" opacity="0.996078431372549" d="M 185.5 303 L 186.5 305 L 185.5 303 Z " /><path fill="rgb(226,176,135)" stroke="rgb(226,176,135)" stroke-width="1" opacity="0.996078431372549" d="M 207 304 Q 210 303 209 306 Q 206 307 207 304 Z " /><path fill="rgb(226,176,135)" stroke="rgb(226,176,135)" stroke-width="1" opacity="0.996078431372549" d="M 198.5 308 L 207 308.5 L 198.5 309 L 198.5 308 Z " /><path fill="rgb(226,176,135)" stroke="rgb(226,176,135)" stroke-width="1" opacity="0.996078431372549" d="M 160.5 311 L 161.5 313 L 160.5 311 Z " /><path fill="rgb(226,176,135)" stroke="rgb(226,176,135)" stroke-width="1" opacity="0.996078431372549" d="M 248.5 311 L 246.5 314 L 248.5 311 Z " /><path fill="rgb(226,176,135)" stroke="rgb(226,176,135)" stroke-width="1" opacity="0.996078431372549" d="M 165.5 315 L 166.5 317 L 165.5 315 Z " /><path fill="rgb(226,176,135)" stroke="rgb(226,176,135)" stroke-width="1" opacity="0.996078431372549" d="M 243.5 315 L 242.5 317 L 243.5 315 Z " /><path fill="rgb(226,176,135)" stroke="rgb(226,176,135)" stroke-width="1" opacity="0.996078431372549" d="M 172.5 320 L 173.5 322 L 172.5 320 Z " /><path fill="rgb(226,176,135)" stroke="rgb(226,176,135)" stroke-width="1" opacity="0.996078431372549" d="M 236.5 320 L 235.5 322 L 236.5 320 Z " /><path fill="rgb(226,176,135)" stroke="rgb(226,176,135)" stroke-width="1" opacity="0.996078431372549" d="M 200.5 333 L 208 333.5 L 200.5 334 L 200.5 333 Z " /><path fill="rgb(226,176,135)" stroke="rgb(226,176,135)" stroke-width="1" opacity="0.996078431372549" d="M 208.5 338 L 211 338.5 L 208.5 339 L 208.5 338 Z " /><path fill="rgb(226,176,135)" stroke="rgb(226,176,135)" stroke-width="1" opacity="0.996078431372549" d="M 238.5 353 L 236.5 356 L 238.5 353 Z " /><path fill="rgb(226,176,135)" stroke="rgb(226,176,135)" stroke-width="1" opacity="0.996078431372549" d="M 173.5 355 L 182.5 365 L 173.5 355 Z " /><path fill="rgb(226,176,135)" stroke="rgb(226,176,135)" stroke-width="1" opacity="0.996078431372549" d="M 240.5 357 L 238.5 360 L 240.5 357 Z " /><path fill="rgb(226,176,135)" stroke="rgb(226,176,135)" stroke-width="1" opacity="0.996078431372549" d="M 170.5 358 L 179.5 368 L 170.5 358 Z " /><path fill="rgb(226,176,135)" stroke="rgb(226,176,135)" stroke-width="1" opacity="0.996078431372549" d="M 232.5 359 L 227.5 365 L 232.5 359 Z " /><path fill="rgb(226,176,135)" stroke="rgb(226,176,135)" stroke-width="1" opacity="0.996078431372549" d="M 235.5 362 L 231.5 367 L 235.5 362 Z " /><path fill="rgb(226,176,135)" stroke="rgb(226,176,135)" stroke-width="1" opacity="0.996078431372549" d="M 187.5 368 L 188.5 370 L 187.5 368 Z " /><path fill="rgb(226,176,135)" stroke="rgb(226,176,135)" stroke-width="1" opacity="0.996078431372549" d="M 221.5 369 L 220.5 371 L 221.5 369 Z " /><path fill="rgb(226,176,135)" stroke="rgb(226,176,135)" stroke-width="1" opacity="0.996078431372549" d="M 184.5 371 L 185.5 373 L 184.5 371 Z " /><path fill="rgb(226,176,135)" stroke="rgb(226,176,135)" stroke-width="1" opacity="0.996078431372549" d="M 216.5 372 L 218 372.5 L 211.5 376 L 213.5 373 L 216.5 372 Z " /><path fill="rgb(226,176,135)" stroke="rgb(226,176,135)" stroke-width="1" opacity="0.996078431372549" d="M 194.5 373 L 195.5 375 L 194.5 373 Z " /><path fill="rgb(226,176,135)" stroke="rgb(226,176,135)" stroke-width="1" opacity="0.996078431372549" d="M 169.5 377 L 168.5 379 L 169.5 377 Z " /><path fill="rgb(226,176,135)" stroke="rgb(226,176,135)" stroke-width="1" opacity="0.996078431372549" d="M 175 378 Q 178 377 177 380 Q 174 381 175 378 Z " /><path fill="rgb(226,176,135)" stroke="rgb(226,176,135)" stroke-width="1" opacity="0.996078431372549" d="M 195.5 379 L 196.5 381 L 195.5 379 Z " /><path fill="rgb(226,176,135)" stroke="rgb(226,176,135)" stroke-width="1" opacity="0.996078431372549" d="M 205.5 379 L 204.5 381 L 205.5 379 Z " /><path fill="rgb(43,8,6)" stroke="rgb(43,8,6)" stroke-width="1" opacity="0.9921568627450981" d="M 187.5 93 L 209.5 94 L 235.5 102 Q 253.6 109.4 268.5 120 L 284 134.5 Q 293.8 145.7 299 161.5 L 304 196.5 L 313 224.5 L 313 237.5 L 308 252.5 L 307 260.5 L 310 269 L 304.5 267 L 304 268.5 L 308.5 275 L 315.5 277 L 318 276 Q 318.1 280.9 314.5 283 L 305.5 287 L 300.5 287 L 298.5 286 L 296 289.5 L 294 297.5 L 284.5 308 Q 279.2 312.2 269.5 312 L 267.5 311 Q 266.2 313.2 261.5 312 L 260.5 311 L 254.5 317 L 248.5 321 L 242.5 322 Q 239 327 233 328 L 234 333 L 249.5 335 L 260.5 344 L 285 349 L 286 354.5 L 288.5 357 Q 291.1 356.3 290 359 L 286.5 361 L 283.5 360 L 282 360.5 L 279.5 357 L 269.5 355 L 270 356.5 L 274 366.5 L 271.5 368 L 270.5 366 L 269 366.5 Q 266.7 355.3 259.5 349 L 248.5 340 L 248 352.5 L 240 377 Q 236.2 378.5 237 375.5 L 245 352.5 L 243 353.5 L 228.5 369 L 214.5 379 L 207.5 380 L 207.5 379 Q 226.9 368.9 240 352.5 Q 240.9 349.5 236.5 351 L 232 350 L 229 331 L 211.5 338 L 197.5 338 Q 187.9 336.1 181.5 331 L 178 350 L 170 351 L 170 352.5 L 185.5 368 L 202 379.5 L 196.5 380 Q 180.2 369.8 168 355.5 L 165.5 352 L 165 354.5 L 173 378 L 170 376.5 L 166 364 L 161.5 366 L 160.5 364 L 162.5 365 Q 165.5 364.5 165 360.5 Q 160.6 353.9 161 342.5 L 162 340.5 L 159.5 342 L 147 352.5 L 141 362.5 L 141 365 Q 137.7 363.9 139 368 L 146 367.5 L 142 365.5 L 143.5 366 L 152.5 367 L 152.5 366 L 149 365.5 L 152.5 365 L 153.5 366 L 160 366 L 160 368.5 L 154.5 374 L 153 372.5 L 154.5 370 L 146 370.5 L 148 371 L 146.5 374 L 145.5 371 L 138.5 370 L 136.5 371 L 128 367.5 L 129.5 364 L 134 366.5 L 132.5 367 L 131 366.5 L 131.5 368 L 137 368 Q 136.2 359.8 141 355.5 L 135.5 355 L 128 358.5 Q 128.8 360.8 126.5 360 L 124.5 359 L 121.5 361 L 116.5 359 L 113.5 361 L 110 358.5 L 115 354.5 Q 114.3 348.8 118.5 348 L 140.5 344 L 149.5 336 L 154.5 334 L 168 333 L 168 328 L 166.5 328 L 155.5 320 L 150.5 319 L 144 313.5 L 138.5 306 Q 131.5 312 116.5 310 L 109 305.5 L 115 300.5 L 111.5 291 L 110 291.5 L 111 294 Q 101.9 293.6 98 286.5 Q 91 280 93 264.5 Q 95.9 259.9 95 251.5 L 88 240.5 L 85 230.5 L 85 224.5 L 89 211.5 L 98 192.5 L 101 178.5 L 102 164.5 L 107 146.5 Q 114.7 127.7 129.5 116 Q 136 110.5 147.5 110 L 148.5 111 L 153.5 106 L 168.5 97 L 187.5 93 Z M 194 98 L 180 101 L 170 106 L 159 116 L 156 115 L 148 116 L 134 125 Q 125 136 119 150 L 115 164 L 114 179 L 111 194 L 100 218 L 98 226 Q 96 231 100 230 L 102 218 Q 112 205 115 186 L 116 186 L 114 198 L 105 217 L 102 228 L 102 242 L 106 246 L 106 228 L 107 227 Q 106 223 109 224 L 108 227 L 108 259 L 106 264 Q 104 276 109 283 L 110 283 L 107 272 Q 107 263 110 258 L 122 241 L 128 229 Q 126 220 120 216 L 120 211 L 115 220 L 114 220 L 119 208 L 131 158 L 137 148 L 143 144 Q 149 146 151 143 L 157 146 L 163 154 L 168 153 Q 174 154 173 152 L 177 148 L 176 146 L 175 148 L 170 149 L 167 151 L 171 145 Q 174 138 183 137 Q 194 137 200 143 L 208 154 L 212 158 L 199 145 L 192 141 L 187 140 L 185 141 Q 180 140 181 143 Q 185 142 188 145 Q 193 149 196 157 L 201 160 L 215 177 Q 229 195 253 204 L 265 204 L 259 199 L 246 186 L 245 183 Q 256 196 272 205 L 283 207 L 285 207 L 249 179 L 224 153 Q 215 141 203 133 L 187 126 L 175 126 L 182 123 L 189 123 L 199 127 L 200 127 Q 197 122 190 121 L 190 120 Q 201 122 208 128 L 277 192 L 296 213 L 301 222 L 304 234 L 304 237 Q 300 219 289 210 L 287 218 L 294 229 L 298 249 L 298 251 L 295 246 L 292 231 Q 290 224 285 220 L 280 229 L 282 238 L 290 253 Q 294 260 303 262 L 302 260 L 303 253 L 308 238 L 308 226 L 299 198 L 294 162 Q 289 148 281 139 L 265 123 L 242 110 L 215 100 L 204 98 L 194 98 Z M 126 125 L 126 127 L 128 126 L 126 125 Z M 126 127 Q 116 136 111 150 L 107 164 L 106 179 L 103 194 L 92 218 L 90 226 Q 88 231 92 230 L 94 218 Q 102 205 107 189 L 110 164 L 113 152 L 121 135 L 126 129 L 126 127 Z M 215 137 L 234 161 Q 242 170 254 177 L 255 178 Q 256 175 254 176 L 235 156 L 220 140 L 215 137 Z M 146 146 L 146 148 L 142 149 L 136 156 L 135 154 L 132 160 L 129 188 L 125 202 L 122 207 L 123 208 L 130 206 L 131 205 L 135 165 L 139 157 Q 144 150 154 149 L 146 146 Z M 182 150 L 180 151 L 180 152 L 186 152 L 182 150 Z M 150 152 L 143 157 Q 138 161 137 168 L 138 169 Q 144 158 158 155 Q 162 156 161 153 Q 157 151 150 152 Z M 171 155 L 156 158 L 147 163 L 136 177 Q 134 184 135 195 L 134 196 L 135 206 L 136 205 L 153 204 L 159 202 L 175 202 L 189 206 L 190 210 L 184 209 L 181 210 Q 191 214 198 221 L 200 220 L 208 220 L 209 221 L 212 221 Q 218 213 229 210 L 229 209 L 225 210 L 219 210 L 219 208 L 229 203 L 241 202 L 231 195 L 210 174 L 193 156 L 190 155 L 171 155 Z M 138 207 L 123 210 Q 122 216 126 217 L 126 213 L 132 210 L 144 209 L 145 208 L 161 208 L 162 209 L 173 210 L 177 212 L 179 212 L 165 207 L 138 207 Z M 247 207 L 234 210 L 234 211 L 248 208 L 265 208 L 282 211 Q 284 212 284 217 Q 287 216 286 210 L 273 207 L 247 207 Z M 148 210 L 142 213 L 142 211 L 139 212 Q 132 215 134 227 Q 135 230 141 229 L 139 227 L 159 217 L 170 217 L 184 223 Q 190 227 192 236 Q 184 243 173 246 Q 146 248 136 233 Q 131 232 130 235 L 130 246 L 133 262 L 143 290 L 151 304 Q 169 324 199 334 L 211 334 L 222 330 Q 237 323 250 312 Q 261 304 266 290 L 276 262 L 279 247 L 278 235 Q 277 232 276 234 Q 273 235 274 231 L 273 231 Q 270 230 271 233 L 273 234 Q 265 243 252 246 L 237 246 L 217 237 L 219 230 L 226 223 L 240 217 L 251 217 L 269 225 L 270 227 L 269 229 L 275 228 L 272 222 Q 266 214 258 210 L 249 210 L 248 211 L 237 212 L 220 220 L 216 227 L 215 233 L 212 233 L 205 228 Q 199 229 197 233 L 194 233 L 192 232 Q 193 225 190 223 L 185 217 L 173 212 L 162 211 L 161 210 L 148 210 Z M 231 211 L 229 212 L 229 213 L 233 212 L 231 211 Z M 180 212 L 180 213 L 184 215 L 185 215 L 180 212 Z M 269 212 L 274 218 L 273 215 L 269 212 Z M 186 215 L 187 217 L 188 217 L 186 215 Z M 223 215 L 212 224 L 206 222 Q 200 221 198 224 L 190 217 L 188 218 L 196 227 L 201 225 Q 208 224 212 227 L 213 225 L 224 216 L 223 215 Z M 165 224 L 155 226 L 150 229 L 145 236 Q 149 242 159 244 L 175 243 L 188 236 L 187 232 Q 183 227 177 225 L 165 224 Z M 238 224 L 226 228 Q 221 231 220 236 L 239 244 Q 256 246 263 237 Q 264 232 261 231 Q 257 226 251 225 L 238 224 Z M 137 231 Q 135 234 138 233 L 137 231 Z M 95 236 Q 93 242 96 245 L 98 246 L 95 236 Z M 126 246 L 119 259 L 122 264 Q 125 268 127 267 Q 122 270 122 278 L 121 278 L 122 274 L 122 271 L 118 265 L 115 272 L 116 277 L 121 280 L 122 295 L 125 301 L 129 304 L 128 303 L 127 305 L 134 303 L 139 296 Q 140 290 138 287 L 137 292 L 135 279 L 134 279 L 133 275 Q 129 276 127 273 Q 124 274 125 278 L 124 278 Q 124 271 128 268 L 131 270 L 132 270 L 131 268 L 128 266 L 130 265 L 126 246 Z M 101 248 Q 101 258 98 264 Q 96 276 101 283 L 102 283 L 99 272 Q 99 262 103 257 Q 104 250 101 248 Z M 284 248 L 282 250 L 281 260 L 279 264 L 280 266 L 278 269 L 278 270 L 282 268 L 285 275 L 285 279 Q 285 274 283 273 L 280 275 L 276 275 Q 277 279 274 278 L 275 281 L 275 288 L 274 280 L 273 292 L 272 287 L 269 293 L 269 295 L 274 301 L 275 306 L 282 304 L 281 303 L 283 302 L 286 296 L 287 296 L 286 298 L 287 299 L 292 289 L 293 278 L 295 274 L 299 281 L 302 282 Q 306 283 308 281 L 305 278 Q 299 274 299 266 L 295 262 L 287 271 L 289 280 L 288 294 L 287 294 L 288 289 L 287 275 L 282 267 L 284 267 L 291 259 L 284 248 Z M 117 285 L 116 287 L 120 295 L 120 300 L 117 295 L 114 293 L 117 301 Q 118 303 122 302 L 123 299 L 121 292 L 117 285 Z M 143 300 L 143 304 L 146 306 L 143 300 Z M 268 301 Q 265 308 270 306 L 268 301 Z M 174 331 Q 172 334 175 333 L 174 331 Z M 167 338 L 162 340 L 164 344 L 175 340 L 175 338 L 167 338 Z M 235 338 L 235 341 L 246 344 L 247 341 L 246 339 L 235 338 Z M 141 349 L 134 351 L 127 351 L 127 356 L 132 354 L 142 353 L 144 350 L 141 349 Z M 266 349 L 267 353 L 278 354 L 282 356 L 283 353 L 282 351 L 266 349 Z M 119 351 L 119 356 L 123 355 Q 125 349 119 351 Z " /><path fill="rgb(43,8,6)" stroke="rgb(43,8,6)" stroke-width="1" opacity="0.9921568627450981" d="M 185.5 107 L 189 108.5 L 175.5 111 L 166 117 L 160.5 127 L 160 125.5 Q 163.3 116.8 170.5 112 L 176.5 109 L 185.5 107 Z " /><path fill="rgb(43,8,6)" stroke="rgb(43,8,6)" stroke-width="1" opacity="0.9921568627450981" d="M 217.5 110 Q 246.7 119.8 264 141.5 L 271 150.5 L 267 147.5 L 250.5 130 L 234.5 119 L 217.5 111 L 217.5 110 Z " /><path fill="rgb(43,8,6)" stroke="rgb(43,8,6)" stroke-width="1" opacity="0.9921568627450981" d="M 177.5 119 L 187 119.5 L 177.5 120 L 177.5 119 Z " /><path fill="rgb(43,8,6)" stroke="rgb(43,8,6)" stroke-width="1" opacity="0.9921568627450981" d="M 217.5 121 Q 232.6 128.4 242 141.5 L 272 175.5 L 279 185.5 L 276 183.5 L 272 177.5 L 224.5 127 Q 218.6 124.7 217.5 121 Z " /><path fill="rgb(43,8,6)" stroke="rgb(43,8,6)" stroke-width="1" opacity="0.9921568627450981" d="M 169.5 128 L 168 130.5 L 169 132.5 Q 164.8 135.4 164 141 L 171.5 136 L 170.5 138 L 168 139.5 L 170 140.5 L 165 143.5 L 162.5 148 L 162 139.5 Q 164.1 132.1 169.5 128 Z " /><path fill="rgb(43,8,6)" stroke="rgb(43,8,6)" stroke-width="1" opacity="0.9921568627450981" d="M 149.5 131 L 157 140.5 L 154.5 139 Q 151.8 136.2 145.5 137 Q 137.8 139.3 133 144.5 L 127 154.5 L 123.5 173 L 123 166.5 L 127 149.5 L 134.5 140 L 141.5 136 L 152 135.5 L 149 134 L 149.5 131 Z " /><path fill="rgb(43,8,6)" stroke="rgb(43,8,6)" stroke-width="1" opacity="0.9921568627450981" d="M 136.5 132 L 137.5 134 L 136 133.5 L 132.5 138 L 130 139.5 L 127.5 143 L 128 141.5 Q 129.4 135.4 134.5 133 L 136.5 132 Z " /><path fill="rgb(43,8,6)" stroke="rgb(43,8,6)" stroke-width="1" opacity="0.9921568627450981" d="M 184.5 132 L 188.5 132 L 198.5 136 L 215 150.5 L 205.5 142 Q 197.8 134.7 184.5 133 L 184.5 132 Z " /><path fill="rgb(43,8,6)" stroke="rgb(43,8,6)" stroke-width="1" opacity="0.9921568627450981" d="M 271.5 152 L 272.5 154 L 271.5 152 Z " /><path fill="rgb(43,8,6)" stroke="rgb(43,8,6)" stroke-width="1" opacity="0.9921568627450981" d="M 211.5 162 L 222 169.5 Q 233.5 186 249 198.5 L 245.5 196 L 239.5 192 L 218 170.5 L 211.5 162 Z " /><path fill="rgb(43,8,6)" stroke="rgb(43,8,6)" stroke-width="1" opacity="0.9921568627450981" d="M 122.5 174 L 123 176.5 L 122 176.5 L 122.5 174 Z " /><path fill="rgb(43,8,6)" stroke="rgb(43,8,6)" stroke-width="1" opacity="0.9921568627450981" d="M 112 221 Q 114.7 219.9 114 222.5 L 111.5 230 L 111 224.5 L 112 221 Z " /><path fill="rgb(43,8,6)" stroke="rgb(43,8,6)" stroke-width="1" opacity="0.9921568627450981" d="M 169 226 L 172 227.5 L 173 232.5 Q 172 237 165.5 236 Q 161 234.6 162 229 L 166.5 230 L 169 226 Z " /><path fill="rgb(43,8,6)" stroke="rgb(43,8,6)" stroke-width="1" opacity="0.9921568627450981" d="M 243 226 L 246 227.5 L 247 231.5 L 243.5 236 L 237 235 L 236 229 L 240.5 230 L 243 226 Z " /><path fill="rgb(43,8,6)" stroke="rgb(43,8,6)" stroke-width="1" opacity="0.9921568627450981" d="M 123.5 279 L 124 286.5 L 128 294.5 L 128 299.5 L 126 298.5 L 123 288.5 L 123.5 279 Z " /><path fill="rgb(43,8,6)" stroke="rgb(43,8,6)" stroke-width="1" opacity="0.9921568627450981" d="M 285.5 280 L 286 287.5 L 285 287.5 L 285.5 280 Z " /><path fill="rgb(43,8,6)" stroke="rgb(43,8,6)" stroke-width="1" opacity="0.9921568627450981" d="M 134.5 281 L 135 286.5 L 134 286.5 L 134.5 281 Z " /><path fill="rgb(43,8,6)" stroke="rgb(43,8,6)" stroke-width="1" opacity="0.9921568627450981" d="M 133.5 289 L 134 293.5 L 130.5 300 L 131 298.5 L 133.5 289 Z " /><path fill="rgb(43,8,6)" stroke="rgb(43,8,6)" stroke-width="1" opacity="0.9921568627450981" d="M 197.5 289 L 205.5 291 L 212.5 289 Q 218.9 292.6 228.5 293 L 235.5 290 L 237 293.5 L 234.5 295 L 232.5 294 L 229.5 296 L 220.5 298 L 195.5 299 L 171 294 L 172.5 290 L 181.5 293 L 197.5 289 Z " /><path fill="rgb(43,8,6)" stroke="rgb(43,8,6)" stroke-width="1" opacity="0.9921568627450981" d="M 284.5 289 L 285 293.5 L 281.5 300 L 282 298.5 L 284.5 289 Z " /><path fill="rgb(43,8,6)" stroke="rgb(43,8,6)" stroke-width="1" opacity="0.9921568627450981" d="M 275.5 291 L 276 293.5 L 275 293.5 L 275.5 291 Z " /><path fill="rgb(43,8,6)" stroke="rgb(43,8,6)" stroke-width="1" opacity="0.9921568627450981" d="M 135.5 293 L 136 295.5 L 134.5 298 L 134 296.5 L 135.5 293 Z " /><path fill="rgb(43,8,6)" stroke="rgb(43,8,6)" stroke-width="1" opacity="0.9921568627450981" d="M 273.5 293 L 274 295.5 L 273 295.5 L 273.5 293 Z " /><path fill="rgb(43,8,6)" stroke="rgb(43,8,6)" stroke-width="1" opacity="0.9921568627450981" d="M 276.5 295 L 280 300.5 L 277 298.5 L 276.5 295 Z " /><path fill="rgb(43,8,6)" stroke="rgb(43,8,6)" stroke-width="1" opacity="0.9921568627450981" d="M 133.5 299 L 132.5 301 L 133.5 299 Z " /><path fill="rgb(43,8,6)" stroke="rgb(43,8,6)" stroke-width="1" opacity="0.9921568627450981" d="M 275.5 299 L 276.5 301 L 275.5 299 Z " /><path fill="rgb(43,8,6)" stroke="rgb(43,8,6)" stroke-width="1" opacity="0.9921568627450981" d="M 118.5 361 L 120 363.5 L 118 362.5 L 118.5 361 Z " /><path fill="rgb(43,8,6)" stroke="rgb(43,8,6)" stroke-width="1" opacity="0.9921568627450981" d="M 155.5 364 L 158 364.5 L 155.5 365 L 155.5 364 Z " /><path fill="rgb(43,8,6)" stroke="rgb(43,8,6)" stroke-width="1" opacity="0.9921568627450981" d="M 246.5 364 L 248.5 365 L 250 364.5 L 249.5 366 L 259.5 365 L 259.5 366 L 257 366.5 L 262.5 367 L 266.5 366 L 266.5 367 L 263 367.5 L 268 368.5 L 262.5 371 L 256 370 Q 257.7 374.1 253.5 373 L 251.5 373 L 248 369.5 L 252 371.5 L 249 366 L 246.5 364 Z " /><path fill="rgb(43,8,6)" stroke="rgb(43,8,6)" stroke-width="1" opacity="0.9921568627450981" d="M 159.5 371 L 157.5 374 L 159.5 371 Z " /><path fill="rgb(43,8,6)" stroke="rgb(43,8,6)" stroke-width="1" opacity="0.9921568627450981" d="M 150.5 372 L 149.5 374 L 150.5 372 Z " /><path fill="rgb(43,8,6)" stroke="rgb(43,8,6)" stroke-width="1" opacity="0.9921568627450981" d="M 162.5 376 Q 166.3 375 165 378 L 162.5 376 Z " /><path fill="rgb(250,248,247)" stroke="rgb(250,248,247)" stroke-width="1" opacity="0.996078431372549" d="M 163 225 L 168 225 L 168 227.5 Q 166.8 230 163 229 L 163 225 Z " /><path fill="rgb(250,248,247)" stroke="rgb(250,248,247)" stroke-width="1" opacity="0.996078431372549" d="M 236 225 L 242 225 L 242 227.5 Q 240.8 230 237 229 L 236 225 Z " /><path fill="rgb(250,248,247)" stroke="rgb(250,248,247)" stroke-width="1" opacity="0.996078431372549" d="M 156.5 226 L 157 228.5 L 156 231.5 L 159 239 L 165.5 242 L 169.5 242 L 177 236.5 L 179 230.5 L 178 226.5 L 179.5 227 L 187 232.5 L 188 236 L 172.5 243 L 161.5 244 L 153.5 242 L 146 236.5 Q 146.7 230.2 151.5 228 L 156.5 226 Z " /><path fill="rgb(250,248,247)" stroke="rgb(250,248,247)" stroke-width="1" opacity="0.996078431372549" d="M 230.5 226 L 231 227.5 L 230 232.5 L 234.5 240 Q 237.4 242.6 243.5 242 L 251 236.5 L 252 227.5 L 251.5 226 Q 258.9 227.1 262 232.5 L 263 235.5 Q 259.3 240.8 252.5 243 L 241.5 244 L 230.5 241 L 221 236 L 221 233.5 L 226.5 228 L 230.5 226 Z " /><path fill="rgb(250,248,247)" stroke="rgb(250,248,247)" stroke-width="1" opacity="0.996078431372549" d="M 193.5 233 L 194 238.5 L 187 251 L 176.5 257 L 161.5 258 Q 146 254.5 138 243.5 L 133 234.5 L 134.5 234 L 144.5 248 L 156.5 255 Q 163.2 257.3 173.5 256 Q 183.1 253.6 188 246.5 L 193.5 233 Z " /><path fill="rgb(250,248,247)" stroke="rgb(250,248,247)" stroke-width="1" opacity="0.996078431372549" d="M 213.5 233 Q 216.5 232.1 215 236.5 Q 217.8 246.8 225.5 252 Q 232.8 258.2 248.5 256 Q 261.6 252.6 269 243.5 L 274 234 Q 276.7 232.9 276 235.5 Q 271.7 245.2 263.5 251 L 251.5 257 L 235.5 258 Q 225 255.5 219 248.5 L 215 241.5 L 213.5 233 Z " /><path fill="rgb(250,248,247)" stroke="rgb(250,248,247)" stroke-width="1" opacity="0.996078431372549" d="M 166.5 354 L 180.5 369 L 195 379.5 L 188.5 380 Q 187.3 377.8 182.5 379 L 180.5 380 L 175.5 378 L 170.5 379 L 170.5 378 L 174 377.5 L 166 356.5 L 166.5 354 Z " /><path fill="rgb(250,248,247)" stroke="rgb(250,248,247)" stroke-width="1" opacity="0.996078431372549" d="M 243.5 354 L 244 355.5 L 236 378 L 214.5 380 L 214.5 379 Q 231 370.5 242 356.5 L 243.5 354 Z " /><path fill="rgb(250,248,247)" stroke="rgb(250,248,247)" stroke-width="1" opacity="0.996078431372549" d="M 166.5 377 L 169 377.5 L 166.5 378 L 166.5 377 Z " /><path fill="rgb(108,78,72)" stroke="rgb(108,78,72)" stroke-width="1" opacity="0.996078431372549" d="M 193.5 98 L 203.5 98 L 214.5 100 L 241.5 110 L 264.5 123 L 281 138.5 Q 289.1 148.4 294 161.5 L 299 197.5 L 308 225.5 L 308 237.5 L 303 252.5 L 302 259.5 L 303 262 Q 294.3 260.1 290 252.5 L 282 237.5 L 280 228.5 L 284.5 220 Q 289.8 223.8 292 230.5 L 295 245.5 L 297.5 251 L 298 248.5 L 294 228.5 L 287 217.5 L 288.5 210 Q 298.9 218.1 302.5 233 L 303 227.5 L 296 212.5 L 276.5 192 L 233.5 153 L 235 155.5 L 253.5 176 Q 255.8 175.3 255 177.5 L 253.5 177 Q 242.2 170.3 234 160.5 L 213 136.5 L 214.5 137 L 219.5 140 L 213.5 133 L 201.5 124 L 192.5 121 L 192.5 122 L 200 126.5 L 198.5 127 L 189 123.5 L 192 122.5 Q 187.2 119.3 177.5 121 L 172 123.5 L 174.5 124 Q 175.7 121.8 180.5 123 L 180.5 124 L 175 125.5 L 186.5 126 L 202.5 133 Q 215 141 224 152.5 L 248.5 179 L 285 206.5 L 282.5 207 L 271.5 205 L 246.5 185 L 246 186.5 L 265 203.5 L 252.5 204 Q 228.8 195.2 215 176.5 L 200.5 160 L 196 156.5 Q 193.4 149.1 187.5 145 Q 185.5 142.2 181 143 Q 179.8 140 183.5 141 L 189.5 143 L 202.5 153 L 194.5 144 L 189 141.5 L 191.5 141 Q 201.5 145.5 207.5 154 L 208 152.5 L 199.5 143 Q 194.3 136.7 182.5 137 Q 174.4 138.4 171 144.5 L 169 148.5 L 170.5 149 L 175 148 L 175.5 146 L 177 147.5 L 173 151.5 Q 173.6 154.3 167.5 153 L 163 154 L 156.5 146 L 150.5 143 Q 148.8 145.7 142.5 144 L 137 147.5 L 131 157.5 L 119 207.5 L 116 215.5 L 118 214.5 L 119.5 211 L 120 215.5 Q 126.4 219.6 128 228.5 L 122 240.5 L 110 257.5 Q 106.9 262.9 107 271.5 L 110 282.5 L 109 282.5 Q 104.2 276.3 106 263.5 L 108 258.5 L 108 226.5 L 109 224 Q 106 222.8 107 226.5 L 106 227.5 L 105.5 246 L 102 241.5 L 102 227.5 L 105 216.5 L 114 197.5 L 115 189.5 L 114 189.5 L 111 200.5 L 102 217.5 L 100 230 Q 96.3 231.3 98 225.5 L 100 217.5 L 111 193.5 L 114 178.5 L 115 163.5 L 119 149.5 Q 125.2 135.5 134 125 L 147.5 116 L 155.5 115 L 158.5 116 L 169.5 106 L 179.5 101 L 193.5 98 Z M 192 101 L 175 107 L 174 109 L 190 104 L 198 104 L 199 103 L 212 104 L 231 110 L 233 110 L 213 102 L 192 101 Z M 186 107 L 177 109 L 171 112 L 167 117 Q 174 109 189 109 L 186 107 Z M 197 109 L 198 111 L 184 111 L 176 114 L 176 115 L 184 113 L 200 113 L 205 114 L 218 118 L 225 122 L 226 122 Q 215 112 197 109 Z M 220 111 L 223 114 L 243 124 L 264 143 L 264 142 Q 247 121 220 111 Z M 166 117 L 163 121 L 166 119 L 166 117 Z M 149 119 L 140 122 L 136 127 L 150 124 L 144 123 L 151 120 L 149 119 Z M 178 119 L 178 120 L 187 120 L 178 119 Z M 190 120 L 190 121 L 192 121 L 190 120 Z M 221 123 L 225 127 L 254 160 L 272 177 L 242 142 L 228 127 L 221 123 Z M 177 128 L 174 130 Q 171 129 172 132 L 175 133 L 181 132 L 181 131 Q 178 132 179 129 Q 190 129 198 134 L 199 134 Q 193 126 177 128 Z M 168 130 L 162 140 L 163 148 L 165 144 L 170 141 L 168 139 L 164 141 Q 165 135 169 133 L 168 130 Z M 150 131 L 149 134 L 152 136 L 142 136 L 135 140 L 127 150 L 123 167 L 124 173 L 127 155 L 133 145 Q 138 139 146 137 Q 152 136 155 139 L 156 140 Q 155 133 150 131 Z M 185 132 L 185 133 Q 193 134 199 138 L 200 138 Q 195 132 185 132 Z M 135 133 L 128 141 L 129 142 L 130 140 L 136 135 Q 137 132 135 133 Z M 141 133 L 139 134 L 139 135 L 147 134 L 141 133 Z M 173 133 L 172 135 L 174 134 L 173 133 Z M 201 138 L 202 140 L 203 140 L 201 138 Z M 140 142 L 138 143 Q 132 146 130 153 L 131 154 L 132 152 Q 136 144 146 143 L 140 142 Z M 213 163 L 218 171 L 245 196 L 246 196 Q 232 184 222 170 L 213 163 Z M 123 174 L 122 177 L 123 177 L 123 174 Z M 273 177 L 272 179 L 275 181 L 273 177 Z M 116 185 L 115 189 L 116 189 L 116 185 Z M 112 221 L 111 225 L 112 230 L 114 223 Q 115 220 112 221 Z M 304 233 L 303 237 L 304 237 L 304 233 Z " /><path fill="rgb(108,78,72)" stroke="rgb(108,78,72)" stroke-width="1" opacity="0.996078431372549" d="M 130.5 122 L 126 127.5 Q 117.7 137.7 113 151.5 L 110 163.5 L 107 188.5 Q 102.3 204.8 94 217.5 L 92 230 Q 88.3 231.3 90 225.5 L 92 217.5 L 103 193.5 L 106 178.5 L 107 163.5 L 111 149.5 Q 117.2 135.5 126 125 L 130.5 122 Z " /><path fill="rgb(108,78,72)" stroke="rgb(108,78,72)" stroke-width="1" opacity="0.996078431372549" d="M 182.5 122 L 187 122.5 L 182.5 123 L 182.5 122 Z " /><path fill="rgb(108,78,72)" stroke="rgb(108,78,72)" stroke-width="1" opacity="0.996078431372549" d="M 146 146 L 154 148.5 Q 143.6 149.6 139 156.5 L 135 164.5 L 131 204.5 L 129.5 206 L 122.5 208 L 122 206.5 L 125 201.5 L 129 187.5 L 132 159.5 L 137.5 150 L 136 152.5 L 136.5 154 L 141 149.5 L 140.5 148 L 142.5 149 L 142.5 147 L 146 148 L 146 146 Z " /><path fill="rgb(108,78,72)" stroke="rgb(108,78,72)" stroke-width="1" opacity="0.996078431372549" d="M 181.5 150 L 186 151.5 L 179.5 152 L 179.5 151 L 181.5 150 Z " /><path fill="rgb(108,78,72)" stroke="rgb(108,78,72)" stroke-width="1" opacity="0.996078431372549" d="M 149.5 152 Q 157.2 151.2 161 153 Q 162.3 156.3 157.5 155 Q 143.9 158.4 137.5 169 L 137 167.5 Q 138.3 160.8 142.5 157 L 149.5 152 Z " /><path fill="rgb(108,78,72)" stroke="rgb(108,78,72)" stroke-width="1" opacity="0.996078431372549" d="M 170.5 155 L 174 155.5 L 170.5 156 L 170.5 155 Z " /><path fill="rgb(108,78,72)" stroke="rgb(108,78,72)" stroke-width="1" opacity="0.996078431372549" d="M 186.5 155 L 190 155.5 L 186.5 156 L 186.5 155 Z " /><path fill="rgb(108,78,72)" stroke="rgb(108,78,72)" stroke-width="1" opacity="0.996078431372549" d="M 146.5 163 L 143.5 167 L 146.5 163 Z " /><path fill="rgb(108,78,72)" stroke="rgb(108,78,72)" stroke-width="1" opacity="0.996078431372549" d="M 205.5 169 L 209.5 174 L 205.5 169 Z " /><path fill="rgb(108,78,72)" stroke="rgb(108,78,72)" stroke-width="1" opacity="0.996078431372549" d="M 140.5 170 L 139.5 172 L 140.5 170 Z " /><path fill="rgb(108,78,72)" stroke="rgb(108,78,72)" stroke-width="1" opacity="0.996078431372549" d="M 135.5 180 L 136 184.5 L 135 184.5 L 135.5 180 Z " /><path fill="rgb(108,78,72)" stroke="rgb(108,78,72)" stroke-width="1" opacity="0.996078431372549" d="M 215.5 180 L 225.5 191 L 215.5 180 Z " /><path fill="rgb(108,78,72)" stroke="rgb(108,78,72)" stroke-width="1" opacity="0.996078431372549" d="M 134.5 195 L 135 198.5 L 134 198.5 L 134.5 195 Z " /><path fill="rgb(108,78,72)" stroke="rgb(108,78,72)" stroke-width="1" opacity="0.996078431372549" d="M 237.5 199 L 238.5 201 L 237.5 199 Z " /><path fill="rgb(108,78,72)" stroke="rgb(108,78,72)" stroke-width="1" opacity="0.996078431372549" d="M 155.5 202 L 158 202.5 L 155.5 203 L 155.5 202 Z " /><path fill="rgb(108,78,72)" stroke="rgb(108,78,72)" stroke-width="1" opacity="0.996078431372549" d="M 175.5 202 L 178 202.5 L 175.5 203 L 175.5 202 Z " /><path fill="rgb(108,78,72)" stroke="rgb(108,78,72)" stroke-width="1" opacity="0.996078431372549" d="M 231.5 202 L 234 202.5 L 231.5 203 L 231.5 202 Z " /><path fill="rgb(108,78,72)" stroke="rgb(108,78,72)" stroke-width="1" opacity="0.996078431372549" d="M 141.5 204 L 146 204.5 L 141.5 205 L 141.5 204 Z " /><path fill="rgb(108,78,72)" stroke="rgb(108,78,72)" stroke-width="1" opacity="0.996078431372549" d="M 137.5 207 L 164.5 207 L 173.5 209 Q 188.5 213.5 197.5 224 Q 199.8 221.3 205.5 222 L 211.5 224 Q 229.4 202.9 272.5 207 L 286 210 Q 287.3 215.5 283.5 217 Q 284.1 212.4 281.5 211 L 264.5 208 L 247.5 208 L 228.5 213 L 213 224.5 L 211.5 227 Q 208.2 223.8 200.5 225 L 196 227 L 196 225.5 L 187.5 217 L 172.5 210 L 161.5 209 L 160.5 208 L 144.5 208 L 143.5 209 L 131.5 210 L 126 212.5 L 125.5 217 Q 121.8 215.5 123 210 L 137.5 207 Z " /><path fill="rgb(108,78,72)" stroke="rgb(108,78,72)" stroke-width="1" opacity="0.996078431372549" d="M 181.5 209 L 184 209.5 L 181.5 210 L 181.5 209 Z " /><path fill="rgb(108,78,72)" stroke="rgb(108,78,72)" stroke-width="1" opacity="0.996078431372549" d="M 190.5 209 L 189.5 211 L 187 210.5 L 190.5 209 Z " /><path fill="rgb(108,78,72)" stroke="rgb(108,78,72)" stroke-width="1" opacity="0.996078431372549" d="M 218.5 209 L 222 210.5 L 219.5 211 L 218.5 209 Z " /><path fill="rgb(108,78,72)" stroke="rgb(108,78,72)" stroke-width="1" opacity="0.996078431372549" d="M 225.5 209 Q 227.8 208.3 227 210.5 L 225.5 209 Z " /><path fill="rgb(108,78,72)" stroke="rgb(108,78,72)" stroke-width="1" opacity="0.996078431372549" d="M 157.5 210 L 161 210.5 L 157.5 211 L 157.5 210 Z " /><path fill="rgb(108,78,72)" stroke="rgb(108,78,72)" stroke-width="1" opacity="0.996078431372549" d="M 248.5 210 L 253 210.5 L 248.5 211 L 248.5 210 Z " /><path fill="rgb(108,78,72)" stroke="rgb(108,78,72)" stroke-width="1" opacity="0.996078431372549" d="M 140.5 211 L 143 212.5 L 141.5 212 L 140.5 211 Z " /><path fill="rgb(108,78,72)" stroke="rgb(108,78,72)" stroke-width="1" opacity="0.996078431372549" d="M 268.5 212 L 273 214.5 L 274 217.5 L 268.5 212 Z " /><path fill="rgb(108,78,72)" stroke="rgb(108,78,72)" stroke-width="1" opacity="0.996078431372549" d="M 156.5 215 L 166.5 215 L 176.5 218 L 179 220.5 L 177.5 220 L 169.5 217 L 158.5 217 L 141.5 225 L 141.5 224 Q 146.7 217.2 156.5 215 Z " /><path fill="rgb(108,78,72)" stroke="rgb(108,78,72)" stroke-width="1" opacity="0.996078431372549" d="M 242.5 215 Q 260.8 213.7 267 224.5 L 265.5 224 L 250.5 217 L 239.5 217 L 230.5 221 L 232.5 218 L 242.5 215 Z " /><path fill="rgb(108,78,72)" stroke="rgb(108,78,72)" stroke-width="1" opacity="0.996078431372549" d="M 265.5 215 L 266.5 217 L 265.5 215 Z " /><path fill="rgb(108,78,72)" stroke="rgb(108,78,72)" stroke-width="1" opacity="0.996078431372549" d="M 192.5 216 L 193.5 218 L 192.5 216 Z " /><path fill="rgb(108,78,72)" stroke="rgb(108,78,72)" stroke-width="1" opacity="0.996078431372549" d="M 212.5 219 L 211.5 221 L 212.5 219 Z " /><path fill="rgb(108,78,72)" stroke="rgb(108,78,72)" stroke-width="1" opacity="0.996078431372549" d="M 269.5 219 L 271.5 222 L 269.5 219 Z " /><path fill="rgb(108,78,72)" stroke="rgb(108,78,72)" stroke-width="1" opacity="0.996078431372549" d="M 164.5 224 L 177 225 Q 178.8 227.4 178 233.5 L 173.5 240 Q 170.3 242.3 163.5 241 L 158 236.5 L 157 227.5 L 158 225 Q 163.2 222.9 162 227.5 L 162 229.5 Q 161.3 235.3 165.5 236 Q 172 237 173 232.5 Q 173.6 227.4 170.5 226 L 164.5 225 L 164.5 224 Z " /><path fill="rgb(108,78,72)" stroke="rgb(108,78,72)" stroke-width="1" opacity="0.996078431372549" d="M 223.5 224 L 221.5 227 L 223.5 224 Z " /><path fill="rgb(108,78,72)" stroke="rgb(108,78,72)" stroke-width="1" opacity="0.996078431372549" d="M 237.5 224 L 251 225 L 252 233.5 L 248.5 239 Q 245.6 242.6 237.5 241 L 232 236.5 L 231 227.5 L 232 225 Q 237.2 222.9 236 227.5 L 236 229.5 L 237 235 L 243.5 236 Q 246.8 234.3 247 229.5 L 244.5 226 Q 242.3 225.3 243 227.5 L 242 227.5 Q 243.3 222.9 237.5 225 L 237.5 224 Z " /><path fill="rgb(108,78,72)" stroke="rgb(108,78,72)" stroke-width="1" opacity="0.996078431372549" d="M 136.5 228 L 141 228.5 L 136.5 229 L 136.5 228 Z " /><path fill="rgb(108,78,72)" stroke="rgb(108,78,72)" stroke-width="1" opacity="0.996078431372549" d="M 268.5 228 L 273 228.5 L 268.5 229 L 268.5 228 Z " /><path fill="rgb(108,78,72)" stroke="rgb(108,78,72)" stroke-width="1" opacity="0.996078431372549" d="M 164.5 229 L 167 229.5 L 164.5 230 L 164.5 229 Z " /><path fill="rgb(108,78,72)" stroke="rgb(108,78,72)" stroke-width="1" opacity="0.996078431372549" d="M 238.5 229 L 241 229.5 L 238.5 230 L 238.5 229 Z " /><path fill="rgb(108,78,72)" stroke="rgb(108,78,72)" stroke-width="1" opacity="0.996078431372549" d="M 259.5 229 L 260.5 231 L 259.5 229 Z " /><path fill="rgb(108,78,72)" stroke="rgb(108,78,72)" stroke-width="1" opacity="0.996078431372549" d="M 209.5 231 L 210.5 233 L 209.5 231 Z " /><path fill="rgb(108,78,72)" stroke="rgb(108,78,72)" stroke-width="1" opacity="0.996078431372549" d="M 212.5 233 L 215 243.5 L 215 253.5 L 214 253.5 Q 210 245.7 212.5 233 Z " /><path fill="rgb(108,78,72)" stroke="rgb(108,78,72)" stroke-width="1" opacity="0.996078431372549" d="M 276.5 233 L 277.5 235 L 276.5 233 Z " /><path fill="rgb(108,78,72)" stroke="rgb(108,78,72)" stroke-width="1" opacity="0.996078431372549" d="M 94.5 236 L 98 245.5 L 96 244.5 Q 92.6 242 94.5 236 Z " /><path fill="rgb(108,78,72)" stroke="rgb(108,78,72)" stroke-width="1" opacity="0.996078431372549" d="M 130.5 243 L 131 245.5 L 130 245.5 L 130.5 243 Z " /><path fill="rgb(108,78,72)" stroke="rgb(108,78,72)" stroke-width="1" opacity="0.996078431372549" d="M 278.5 243 L 279 246.5 L 278 246.5 L 278.5 243 Z " /><path fill="rgb(108,78,72)" stroke="rgb(108,78,72)" stroke-width="1" opacity="0.996078431372549" d="M 162.5 246 L 167 246.5 L 162.5 247 L 162.5 246 Z " /><path fill="rgb(108,78,72)" stroke="rgb(108,78,72)" stroke-width="1" opacity="0.996078431372549" d="M 241.5 246 L 247 246.5 L 241.5 247 L 241.5 246 Z " /><path fill="rgb(108,78,72)" stroke="rgb(108,78,72)" stroke-width="1" opacity="0.996078431372549" d="M 100.5 248 Q 103.7 250.3 103 256.5 Q 98.8 261.8 99 271.5 L 102 282.5 L 101 282.5 Q 96.2 276.3 98 263.5 Q 101.4 257.9 100.5 248 Z " /><path fill="rgb(108,78,72)" stroke="rgb(108,78,72)" stroke-width="1" opacity="0.996078431372549" d="M 283.5 248 L 283 249.5 L 282.5 253 L 282 249.5 L 283.5 248 Z " /><path fill="rgb(108,78,72)" stroke="rgb(108,78,72)" stroke-width="1" opacity="0.996078431372549" d="M 126.5 249 L 127 251.5 L 126 251.5 L 126.5 249 Z " /><path fill="rgb(108,78,72)" stroke="rgb(108,78,72)" stroke-width="1" opacity="0.996078431372549" d="M 277.5 251 L 278 253.5 L 277 253.5 L 277.5 251 Z " /><path fill="rgb(108,78,72)" stroke="rgb(108,78,72)" stroke-width="1" opacity="0.996078431372549" d="M 127.5 255 L 128 257.5 L 127 257.5 L 127.5 255 Z " /><path fill="rgb(108,78,72)" stroke="rgb(108,78,72)" stroke-width="1" opacity="0.996078431372549" d="M 281.5 255 L 282 257.5 L 281 257.5 L 281.5 255 Z " /><path fill="rgb(108,78,72)" stroke="rgb(108,78,72)" stroke-width="1" opacity="0.996078431372549" d="M 122.5 257 L 127.5 261 L 129 260.5 L 130 263.5 L 128.5 263 L 122.5 257 Z " /><path fill="rgb(108,78,72)" stroke="rgb(108,78,72)" stroke-width="1" opacity="0.996078431372549" d="M 286.5 257 L 281.5 263 L 279.5 264 L 280 262.5 L 280.5 260 L 282.5 260 L 286.5 257 Z " /><path fill="rgb(108,78,72)" stroke="rgb(108,78,72)" stroke-width="1" opacity="0.996078431372549" d="M 294.5 262 L 299 265.5 Q 299.4 274.1 304.5 278 L 308 280.5 Q 306.3 282.8 301.5 282 L 299 281 L 294.5 274 L 291 291.5 L 284.5 302 L 281.5 301 L 279.5 300 L 279 302 L 282 303.5 L 275 306 L 274 300.5 L 269 294.5 L 269 292.5 L 271.5 287 L 272.5 292 L 274 291.5 L 273 295.5 L 276 293.5 L 274 288.5 Q 276.8 286.7 275 280.5 L 274 280.5 L 273.5 282 L 273 280.5 L 274 278 Q 277.3 279.1 276 275 L 279.5 275 L 282.5 273 L 285 273.5 L 284 278.5 L 285 278.5 L 285.5 277 L 286 279.5 Q 283.3 281.3 285 287.5 L 286 290.5 L 285 290.5 L 284.5 289 L 284 293.5 L 284.5 295 L 283 294.5 Q 282.5 298.5 285.5 299 L 286 297.5 L 285.5 296 L 287 296.5 L 286 293.5 L 288 293.5 L 287 285.5 L 288 285.5 L 288.5 289 L 289 279.5 L 288 279.5 L 287.5 283 L 287 279.5 L 288 274.5 L 286 274.5 L 287 270.5 L 294.5 262 Z M 275 295 L 275 297 L 275 298 L 277 297 Q 278 294 275 295 Z M 283 297 L 282 299 L 285 301 L 283 297 Z " /><path fill="rgb(108,78,72)" stroke="rgb(108,78,72)" stroke-width="1" opacity="0.996078431372549" d="M 122.5 263 L 125.5 267 L 122.5 263 Z " /><path fill="rgb(108,78,72)" stroke="rgb(108,78,72)" stroke-width="1" opacity="0.996078431372549" d="M 286.5 263 L 283.5 267 L 286.5 263 Z " /><path fill="rgb(108,78,72)" stroke="rgb(108,78,72)" stroke-width="1" opacity="0.996078431372549" d="M 190.5 264 L 191 267.5 L 190 270.5 Q 191.8 273.8 198.5 272 L 202.5 276 L 205.5 276 Q 207.4 270.9 215.5 272 Q 216.8 274.3 218 271.5 L 218.5 265 Q 220.9 267.1 220 272.5 Q 219.5 275.5 215.5 275 L 211.5 274 Q 209.5 278.4 203.5 279 L 197.5 274 L 194.5 274 L 191.5 275 L 188 269.5 L 190.5 264 Z " /><path fill="rgb(108,78,72)" stroke="rgb(108,78,72)" stroke-width="1" opacity="0.996078431372549" d="M 117.5 265 Q 122.1 267.9 123 274.5 L 121 274.5 L 122 280.5 L 120.5 280 L 116 276.5 L 115 271.5 L 117.5 265 Z " /><path fill="rgb(108,78,72)" stroke="rgb(108,78,72)" stroke-width="1" opacity="0.996078431372549" d="M 127.5 265 L 131 267.5 L 128.5 269 L 127.5 265 Z " /><path fill="rgb(108,78,72)" stroke="rgb(108,78,72)" stroke-width="1" opacity="0.996078431372549" d="M 280.5 265 Q 282.8 264.3 282 266.5 L 280.5 269 L 278 267.5 L 280.5 265 Z " /><path fill="rgb(108,78,72)" stroke="rgb(108,78,72)" stroke-width="1" opacity="0.996078431372549" d="M 124.5 269 L 125.5 271 L 124.5 269 Z " /><path fill="rgb(108,78,72)" stroke="rgb(108,78,72)" stroke-width="1" opacity="0.996078431372549" d="M 282.5 269 L 285 269.5 Q 282.9 272.8 282.5 269 Z " /><path fill="rgb(108,78,72)" stroke="rgb(108,78,72)" stroke-width="1" opacity="0.996078431372549" d="M 124.5 273 L 127.5 274 L 133 275 L 133.5 279 L 135 278.5 L 136 280.5 L 134 281 L 135 289.5 L 133 289.5 Q 132 295 135.5 296 L 136 293.5 L 135 291.5 L 137 291.5 L 137.5 287 Q 139.8 289.8 139 295.5 L 133.5 303 L 126.5 305 L 128.5 302 L 130 301.5 L 127.5 301 Q 126.2 303.3 125 300.5 L 128 299.5 L 128 294.5 L 124 286.5 L 123 276.5 L 124 276.5 L 124.5 278 L 125 274.5 L 124.5 273 Z M 133 294 L 132 297 L 135 298 L 133 294 Z M 132 297 Q 130 300 133 299 L 132 297 Z " /><path fill="rgb(108,78,72)" stroke="rgb(108,78,72)" stroke-width="1" opacity="0.996078431372549" d="M 116.5 285 Q 120.9 288.1 121.5 295 L 122.5 293 L 123 294.5 L 122 297.5 L 122 299.5 L 121.5 302 L 119.5 301 Q 118.3 303.3 117 300.5 L 120 299.5 L 120 294.5 L 116 286.5 L 116.5 285 Z " /><path fill="rgb(108,78,72)" stroke="rgb(108,78,72)" stroke-width="1" opacity="0.996078431372549" d="M 121.5 285 L 122 288.5 L 121 288.5 L 121.5 285 Z " /><path fill="rgb(108,78,72)" stroke="rgb(108,78,72)" stroke-width="1" opacity="0.996078431372549" d="M 123.5 289 L 124 291.5 L 123 291.5 L 123.5 289 Z " /><path fill="rgb(108,78,72)" stroke="rgb(108,78,72)" stroke-width="1" opacity="0.996078431372549" d="M 194.5 289 L 197 289.5 L 194.5 290 L 194.5 289 Z " /><path fill="rgb(108,78,72)" stroke="rgb(108,78,72)" stroke-width="1" opacity="0.996078431372549" d="M 203.5 290 L 206 290.5 L 203.5 291 L 203.5 290 Z " /><path fill="rgb(108,78,72)" stroke="rgb(108,78,72)" stroke-width="1" opacity="0.996078431372549" d="M 225.5 292 L 229 292.5 L 225.5 293 L 225.5 292 Z " /><path fill="rgb(108,78,72)" stroke="rgb(108,78,72)" stroke-width="1" opacity="0.996078431372549" d="M 237.5 292 L 238 293.5 L 236 294.5 L 237.5 292 Z " /><path fill="rgb(108,78,72)" stroke="rgb(108,78,72)" stroke-width="1" opacity="0.996078431372549" d="M 114 293 L 117 294.5 L 115.5 297 L 116 295.5 L 115.5 294 L 114 294.5 L 114 293 Z " /><path fill="rgb(108,78,72)" stroke="rgb(108,78,72)" stroke-width="1" opacity="0.996078431372549" d="M 124.5 294 L 125 295.5 L 123 296.5 L 124.5 294 Z " /><path fill="rgb(108,78,72)" stroke="rgb(108,78,72)" stroke-width="1" opacity="0.996078431372549" d="M 171.5 294 L 175 294.5 L 171.5 295 L 171.5 294 Z " /><path fill="rgb(108,78,72)" stroke="rgb(108,78,72)" stroke-width="1" opacity="0.996078431372549" d="M 176.5 295 L 195.5 299 L 212.5 299 L 213.5 298 L 226.5 297 L 230.5 295 L 226.5 300 L 213.5 307 Q 206.4 309.4 195.5 308 Q 181.9 304.3 176.5 295 Z M 192 302 Q 192 305 197 306 L 205 306 L 205 304 L 192 302 Z M 207 304 Q 206 307 209 306 Q 210 303 207 304 Z " /><path fill="rgb(108,78,72)" stroke="rgb(108,78,72)" stroke-width="1" opacity="0.996078431372549" d="M 117.5 297 L 116.5 299 L 117.5 297 Z " /><path fill="rgb(108,78,72)" stroke="rgb(108,78,72)" stroke-width="1" opacity="0.996078431372549" d="M 125.5 297 L 124.5 299 L 125.5 297 Z " /><path fill="rgb(108,78,72)" stroke="rgb(108,78,72)" stroke-width="1" opacity="0.996078431372549" d="M 267.5 301 L 270 306 Q 264.6 307.7 267.5 301 Z " /><path fill="rgb(108,78,72)" stroke="rgb(108,78,72)" stroke-width="1" opacity="0.996078431372549" d="M 143.5 303 L 146 304 L 148 307.5 L 143.5 303 Z " /><path fill="rgb(108,78,72)" stroke="rgb(108,78,72)" stroke-width="1" opacity="0.996078431372549" d="M 151.5 303 L 159.5 312 L 151.5 303 Z " /><path fill="rgb(108,78,72)" stroke="rgb(108,78,72)" stroke-width="1" opacity="0.996078431372549" d="M 257.5 303 L 249.5 312 L 257.5 303 Z " /><path fill="rgb(108,78,72)" stroke="rgb(108,78,72)" stroke-width="1" opacity="0.996078431372549" d="M 162.5 313 L 163.5 315 L 162.5 313 Z " /><path fill="rgb(108,78,72)" stroke="rgb(108,78,72)" stroke-width="1" opacity="0.996078431372549" d="M 170.5 319 L 171.5 321 L 170.5 319 Z " /><path fill="rgb(108,78,72)" stroke="rgb(108,78,72)" stroke-width="1" opacity="0.996078431372549" d="M 238.5 319 L 237.5 321 L 238.5 319 Z " /><path fill="rgb(108,78,72)" stroke="rgb(108,78,72)" stroke-width="1" opacity="0.996078431372549" d="M 173.5 331 L 174.5 333 L 173.5 331 Z " /><path fill="rgb(108,78,72)" stroke="rgb(108,78,72)" stroke-width="1" opacity="0.996078431372549" d="M 208.5 333 L 211 333.5 L 208.5 334 L 208.5 333 Z " /><path fill="rgb(108,78,72)" stroke="rgb(108,78,72)" stroke-width="1" opacity="0.996078431372549" d="M 166.5 338 L 174.5 338 L 175 339.5 L 163.5 344 L 162.5 340 Q 159.9 342.4 161 348.5 L 165 362.5 L 164.5 364 Q 166.8 363.3 166 365.5 L 171 377.5 L 169.5 377 L 162.5 376 L 162.5 378 L 148.5 375 L 147 373.5 L 148 371 L 145 372.5 L 145.5 374 L 138 370.5 L 142.5 370 L 145.5 371 L 146.5 370 L 154.5 370 L 153 372.5 L 154.5 374 L 160 368.5 L 160 366 L 147.5 367 L 143.5 366 L 143.5 367 L 146 367.5 L 139 368 L 139 365 Q 142 366.3 141 362.5 Q 145.1 353.1 152.5 347 L 162.5 339 L 166.5 338 Z M 156 364 L 156 365 L 158 365 L 156 364 Z M 150 365 L 150 366 L 153 366 L 150 365 Z " /><path fill="rgb(108,78,72)" stroke="rgb(108,78,72)" stroke-width="1" opacity="0.996078431372549" d="M 200.5 338 L 208 338.5 L 200.5 339 L 200.5 338 Z " /><path fill="rgb(108,78,72)" stroke="rgb(108,78,72)" stroke-width="1" opacity="0.996078431372549" d="M 235 338 L 245.5 339 L 247 340.5 L 245.5 344 L 235 341 L 235 338 Z " /><path fill="rgb(108,78,72)" stroke="rgb(108,78,72)" stroke-width="1" opacity="0.996078431372549" d="M 248.5 340 L 261 350.5 Q 267.1 356.9 269.5 367 L 271 366.5 Q 271.8 368.8 269.5 368 L 267.5 368 L 249 366 L 253.5 373 L 255 373.5 L 240 377 L 248 352.5 L 248.5 340 Z M 258 365 L 258 366 L 260 366 L 258 365 Z M 264 366 L 264 367 L 267 367 L 264 366 Z " /><path fill="rgb(108,78,72)" stroke="rgb(108,78,72)" stroke-width="1" opacity="0.996078431372549" d="M 140.5 349 L 144 349.5 L 141.5 353 L 131.5 354 L 127 356 L 127 351 L 133.5 351 L 140.5 349 Z " /><path fill="rgb(108,78,72)" stroke="rgb(108,78,72)" stroke-width="1" opacity="0.996078431372549" d="M 266 349 L 281.5 351 L 283 352.5 L 281.5 356 L 277.5 354 L 267 353 L 266 349 Z " /><path fill="rgb(108,78,72)" stroke="rgb(108,78,72)" stroke-width="1" opacity="0.996078431372549" d="M 174.5 350 L 177 350.5 L 174.5 351 L 174.5 350 Z " /><path fill="rgb(108,78,72)" stroke="rgb(108,78,72)" stroke-width="1" opacity="0.996078431372549" d="M 119 351 Q 125 349 123 355 L 119 356 L 119 351 Z " /><path fill="rgb(108,78,72)" stroke="rgb(108,78,72)" stroke-width="1" opacity="0.996078431372549" d="M 170.5 351 L 173 354.5 L 170 352.5 L 170.5 351 Z " /><path fill="rgb(108,78,72)" stroke="rgb(108,78,72)" stroke-width="1" opacity="0.996078431372549" d="M 244.5 352 L 245 354 L 243 353.5 L 244.5 352 Z " /><path fill="rgb(108,78,72)" stroke="rgb(108,78,72)" stroke-width="1" opacity="0.996078431372549" d="M 166.5 353 L 167.5 355 L 165 354.5 L 166.5 353 Z " /><path fill="rgb(108,78,72)" stroke="rgb(108,78,72)" stroke-width="1" opacity="0.996078431372549" d="M 135.5 355 L 141 355.5 Q 136.2 359.8 137 368 L 131.5 368 L 131 366.5 L 131.5 365 L 129.5 364 L 129 367 L 126.5 367 L 119 362.5 L 118.5 361 L 116.5 362 Q 113.5 360.5 116.5 359 L 122.5 361 L 125.5 359 L 128 360 L 129.5 357 L 135.5 355 Z " /><path fill="rgb(108,78,72)" stroke="rgb(108,78,72)" stroke-width="1" opacity="0.996078431372549" d="M 269.5 355 Q 278.5 354.5 282 359.5 L 282.5 361 L 285.5 360 L 285.5 361 L 273 366 L 269.5 355 Z " /><path fill="rgb(108,78,72)" stroke="rgb(108,78,72)" stroke-width="1" opacity="0.996078431372549" d="M 237.5 360 L 236.5 362 L 237.5 360 Z " /><path fill="rgb(108,78,72)" stroke="rgb(108,78,72)" stroke-width="1" opacity="0.996078431372549" d="M 183.5 365 L 185.5 368 L 183.5 365 Z " /><path fill="rgb(108,78,72)" stroke="rgb(108,78,72)" stroke-width="1" opacity="0.996078431372549" d="M 226.5 365 L 224.5 368 L 226.5 365 Z " /><path fill="rgb(108,78,72)" stroke="rgb(108,78,72)" stroke-width="1" opacity="0.996078431372549" d="M 182.5 369 L 183.5 371 L 182.5 369 Z " /><path fill="rgb(108,78,72)" stroke="rgb(108,78,72)" stroke-width="1" opacity="0.996078431372549" d="M 227.5 369 L 226.5 371 L 227.5 369 Z " /><path fill="rgb(108,78,72)" stroke="rgb(108,78,72)" stroke-width="1" opacity="0.996078431372549" d="M 189.5 370 L 191.5 373 L 189.5 370 Z " /><path fill="rgb(108,78,72)" stroke="rgb(108,78,72)" stroke-width="1" opacity="0.996078431372549" d="M 256 370 L 262 370.5 L 256 373 L 256 370 Z " /><path fill="rgb(108,78,72)" stroke="rgb(108,78,72)" stroke-width="1" opacity="0.996078431372549" d="M 193.5 373 L 194.5 375 L 193.5 373 Z " /><path fill="rgb(108,78,72)" stroke="rgb(108,78,72)" stroke-width="1" opacity="0.996078431372549" d="M 214.5 374 L 213.5 376 L 214.5 374 Z " /><path fill="rgb(108,78,72)" stroke="rgb(108,78,72)" stroke-width="1" opacity="0.996078431372549" d="M 196.5 375 L 197.5 377 L 196.5 375 Z " /><path fill="rgb(108,78,72)" stroke="rgb(108,78,72)" stroke-width="1" opacity="0.996078431372549" d="M 202.5 379 L 203.5 381 L 197 380.5 L 202.5 379 Z " /><path fill="rgb(108,78,72)" stroke="rgb(108,78,72)" stroke-width="1" opacity="0.996078431372549" d="M 206.5 379 Q 207.7 381.3 212.5 380 Q 213.8 377.8 215 380.5 L 205.5 381 L 206.5 379 Z " /><path fill="rgb(108,78,72)" stroke="rgb(108,78,72)" stroke-width="1" opacity="0.996078431372549" d="M 189.5 380 L 196 380.5 L 189.5 381 L 189.5 380 Z " /><path fill="rgb(254,204,153)" stroke="rgb(254,204,153)" stroke-width="1" opacity="0.996078431372549" d="M 167.5 156 L 191.5 156 L 210 174.5 L 229.5 195 L 238 200.5 L 225.5 203 L 219 206.5 L 218 211 L 223 211.5 L 210.5 221 L 203.5 219 L 197.5 221 L 186 211.5 L 191 211 L 188.5 205 L 179.5 202 L 160.5 201 L 150.5 204 L 134.5 205 L 135 203.5 L 136 178.5 L 147.5 163 L 152.5 160 L 167.5 156 Z " /><path fill="rgb(254,204,153)" stroke="rgb(254,204,153)" stroke-width="1" opacity="0.996078431372549" d="M 146.5 211 L 165.5 211 L 174.5 213 Q 184.8 215.8 190 223.5 L 192 231.5 L 191 231.5 L 185.5 224 L 171.5 215 L 160.5 213 L 150.5 215 L 141 222.5 L 139.5 225 L 137 225.5 L 138.5 228 Q 133.3 229.8 135 224.5 L 134 220.5 L 135 216.5 L 139.5 212 L 140 213.5 L 139.5 215 L 146.5 211 Z " /><path fill="rgb(254,204,153)" stroke="rgb(254,204,153)" stroke-width="1" opacity="0.996078431372549" d="M 243.5 211 L 258.5 211 L 272 222.5 L 274 228 L 270 227.5 L 271 225 Q 267.2 226.5 268 223.5 L 263.5 218 L 254.5 214 L 247.5 213 Q 246 215.5 240.5 214 L 229.5 219 L 219 228.5 L 216.5 234 L 216 228.5 L 222.5 219 L 229.5 215 L 243.5 211 Z " /><path fill="rgb(254,204,153)" stroke="rgb(254,204,153)" stroke-width="1" opacity="0.996078431372549" d="M 201.5 229 Q 206.9 228.4 209 230 L 210.5 233 Q 212.8 232.3 212 234.5 Q 209.3 236.2 211 242.5 L 214 255 Q 217.7 256.4 216 250.5 Q 213.2 248.7 215 242.5 L 216 242.5 L 221.5 251 Q 229.3 259.3 246 258.5 L 241 265.5 L 241 272.5 Q 245.7 280.3 257.5 281 Q 264.7 279.2 268 273.5 L 271 265.5 L 271 257.5 L 267.5 253 L 262.5 252 L 261 252.5 L 272 242.5 L 276.5 234 L 278 236.5 L 278 248.5 L 275 262.5 L 264 292.5 Q 258.8 303.8 249.5 311 Q 234.9 323.9 215.5 332 Q 208.4 334.4 197.5 333 Q 169 323 151 302.5 L 143 287.5 L 133 258.5 L 130 236.5 L 131 234 L 134 235.5 Q 137.5 245.5 145.5 251 L 148 252.5 L 146.5 252 Q 140.9 251.9 139 255.5 Q 136.5 259 138 266.5 L 143 277 Q 147 280.8 155.5 281 Q 163.2 279.1 167 273.5 L 168 265.5 L 163 258.5 L 176.5 257 L 187 251 L 192 243.5 L 194 238.5 L 194 233 Q 197.8 234 199 231.5 Q 198.3 229.3 200.5 230 L 201.5 229 Z M 191 264 L 188 268 L 189 274 L 203 279 L 207 279 L 209 277 L 218 275 L 220 273 Q 222 267 219 266 Q 220 263 217 264 L 218 268 Q 219 271 217 272 L 213 271 L 209 273 Q 200 274 197 271 L 191 272 L 191 264 Z M 174 289 L 171 290 L 170 293 L 172 295 Q 177 293 176 297 Q 184 306 199 309 L 207 309 L 218 306 L 233 295 L 238 295 Q 239 290 236 289 Q 231 289 231 292 L 224 292 L 216 289 L 208 289 L 207 290 L 202 289 L 194 289 L 185 292 Q 176 294 174 289 Z " /><path fill="rgb(254,204,153)" stroke="rgb(254,204,153)" stroke-width="1" opacity="0.996078431372549" d="M 272.5 235 L 274 235.5 L 272 236.5 L 272.5 238 L 271 238.5 L 271.5 240 L 270 239.5 L 268 242.5 Q 270.3 243.8 267.5 245 Q 266.3 242.7 265 245.5 Q 267.3 246.8 264.5 248 Q 263 245.5 261.5 249 L 260 249.5 L 260.5 251 L 258.5 250 L 250.5 254 L 235.5 255 L 234.5 256 L 234.5 254 L 231.5 255 L 231.5 253 L 226.5 251 L 225 251.5 L 225.5 250 L 221 246.5 L 220.5 245 L 219 245.5 L 219 243.5 L 218 240 L 216 239.5 L 217.5 237 L 234.5 246 L 248.5 247 Q 264 244.5 272.5 235 Z " /><path fill="rgb(254,204,153)" stroke="rgb(254,204,153)" stroke-width="1" opacity="0.996078431372549" d="M 137.5 236 Q 147.7 247.3 169.5 247 Q 181.6 244.6 189.5 238 L 191 241.5 L 189 241.5 L 190 243.5 L 188 243.5 L 187 245.5 L 187.5 247 L 186.5 246 L 182 250.5 L 182.5 252 L 180.5 251 Q 178.3 254.3 173 254.5 L 173.5 256 L 172.5 255 L 161.5 255 L 160 255.5 L 160.5 254 L 156.5 255 L 156.5 253 L 149.5 250 L 148 250.5 L 148.5 249 L 145.5 247 L 144.5 248 L 141 244.5 Q 143.8 242.8 139.5 241 L 138 240.5 L 138 238.5 L 137.5 236 Z " /><path fill="rgb(254,204,153)" stroke="rgb(254,204,153)" stroke-width="1" opacity="0.996078431372549" d="M 262.5 236 L 261.5 238 L 262.5 236 Z " /><path fill="rgb(254,204,153)" stroke="rgb(254,204,153)" stroke-width="1" opacity="0.996078431372549" d="M 120 257 Q 122.7 255.9 122 258.5 L 126.5 263 L 129 263 Q 130.3 266 126.5 265 L 125.5 266 L 122 262.5 L 120 257 Z " /><path fill="rgb(254,204,153)" stroke="rgb(254,204,153)" stroke-width="1" opacity="0.996078431372549" d="M 247.5 257 L 250 257.5 L 247.5 258 L 247.5 257 Z " /><path fill="rgb(254,204,153)" stroke="rgb(254,204,153)" stroke-width="1" opacity="0.996078431372549" d="M 287 257 L 290 258.5 L 283.5 266 L 280 265 Q 278.8 262 282.5 263 L 287 257 Z " /><path fill="rgb(254,204,153)" stroke="rgb(254,204,153)" stroke-width="1" opacity="0.996078431372549" d="M 125.5 269 L 125 270.5 L 123.5 275 L 123 272.5 L 125.5 269 Z " /><path fill="rgb(254,204,153)" stroke="rgb(254,204,153)" stroke-width="1" opacity="0.996078431372549" d="M 283.5 269 L 285 271.5 L 284 271.5 L 283.5 269 Z " /><path fill="rgb(254,204,153)" stroke="rgb(254,204,153)" stroke-width="1" opacity="0.996078431372549" d="M 122.5 276 L 123 290.5 L 122 290.5 L 122.5 276 Z " /><path fill="rgb(254,204,153)" stroke="rgb(254,204,153)" stroke-width="1" opacity="0.996078431372549" d="M 286.5 276 L 287 290.5 L 286 290.5 L 286.5 276 Z " /><path fill="rgb(254,204,153)" stroke="rgb(254,204,153)" stroke-width="1" opacity="0.996078431372549" d="M 135.5 284 L 136 287.5 L 135 287.5 L 135.5 284 Z " /><path fill="rgb(254,204,153)" stroke="rgb(254,204,153)" stroke-width="1" opacity="0.996078431372549" d="M 273.5 284 L 274 288.5 L 273 288.5 L 273.5 284 Z " /><path fill="rgb(254,204,153)" stroke="rgb(254,204,153)" stroke-width="1" opacity="0.996078431372549" d="M 274.5 292 L 275 294.5 L 274 294.5 L 274.5 292 Z " /><path fill="rgb(254,204,153)" stroke="rgb(254,204,153)" stroke-width="1" opacity="0.996078431372549" d="M 181.5 332 L 198.5 339 L 210.5 339 L 227.5 332 L 229 333.5 L 230 345.5 L 232.5 351 Q 237.8 349.8 239 352.5 L 233.5 359 L 218.5 372 Q 212.9 371.9 211 375.5 Q 211.8 377.8 209.5 377 L 203.5 380 Q 184.7 368.8 171 352.5 Q 172.6 349.5 178 351 L 181.5 332 Z " /><path fill="rgb(254,204,153)" stroke="rgb(254,204,153)" stroke-width="1" opacity="0.996078431372549" d="M 177.5 378 L 180 379.5 L 177 380 L 177.5 378 Z " /><path fill="rgb(254,204,153)" stroke="rgb(254,204,153)" stroke-width="1" opacity="0.996078431372549" d="M 184.5 379 L 188 379.5 L 184.5 380 L 184.5 379 Z " /></svg>